<?xml version="1.0" encoding="UTF-8" standalone="no"?>
<svg
   width="29.039999pt"
   height="58.079998pt"
   viewBox="0 0 29.039999 58.079998"
   version="1.1"
   id="svg4"
   xmlns="http://www.w3.org/2000/svg"
   xmlns:svg="http://www.w3.org/2000/svg">
  <defs
     id="defs8" />
  <path
     fill-rule="nonzero"
     fill="rgb(0%, 0%, 0%)"
     fill-opacity="1"
     d="M 14.351563 50.171875 L 7.5625 50.300781 L 7.554688 49.890625 L 7.960938 49.929688 C 7.867188 50.945313 7.371094 51.453125 6.46875 51.453125 C 5.617188 51.453125 4.945313 50.667969 4.460938 49.097656 C 4.023438 47.679688 3.804688 46.210938 3.804688 44.695313 C 3.804688 43.160156 4.101563 41.730469 4.699219 40.402344 C 5.304688 39.070313 6.117188 37.996094 7.144531 37.1875 C 9.199219 35.539063 11.636719 34.714844 14.449219 34.714844 C 17.1875 34.714844 19.570313 35.503906 21.589844 37.082031 C 22.617188 37.871094 23.433594 38.914063 24.046875 40.214844 C 24.65625 41.507813 24.960938 43.042969 24.960938 44.8125 C 24.960938 46.566406 24.738281 48.097656 24.285156 49.398438 C 23.785156 50.835938 23.101563 51.558594 22.226563 51.558594 C 21.3125 51.558594 20.855469 50.984375 20.855469 49.839844 L 21.261719 49.839844 L 21.257813 50.25 L 14.335938 50.171875 L 14.34375 49.761719 Z M 14.339844 49.351563 L 21.671875 49.433594 L 21.671875 49.839844 C 21.671875 50.4375 21.855469 50.742188 22.226563 50.742188 C 22.714844 50.742188 23.140625 50.203125 23.515625 49.128906 C 23.9375 47.917969 24.144531 46.476563 24.144531 44.8125 C 24.144531 43.164063 23.867188 41.746094 23.308594 40.5625 C 22.753906 39.382813 22.015625 38.4375 21.089844 37.726563 C 19.214844 36.265625 17 35.53125 14.449219 35.53125 C 11.824219 35.53125 9.5625 36.300781 7.648438 37.832031 C 6.726563 38.558594 5.992188 39.527344 5.445313 40.742188 C 4.894531 41.960938 4.617188 43.28125 4.617188 44.695313 C 4.617188 46.128906 4.828125 47.515625 5.238281 48.855469 C 5.609375 50.039063 6.015625 50.636719 6.46875 50.636719 C 6.875 50.636719 7.101563 50.375 7.148438 49.855469 L 7.179688 49.492188 L 14.335938 49.351563 Z M 14.253906 38.046875 C 12.230469 38.046875 10.492188 38.640625 9.023438 39.828125 C 7.585938 40.992188 6.867188 42.691406 6.867188 44.917969 C 6.867188 45.847656 7 46.578125 7.265625 47.117188 L 6.902344 47.300781 L 6.921875 46.890625 C 7.996094 46.945313 10.339844 46.96875 13.964844 46.96875 C 17.589844 46.96875 20.238281 46.925781 21.921875 46.839844 L 21.941406 47.25 L 21.558594 47.109375 C 21.765625 46.523438 21.875 45.691406 21.875 44.601563 C 21.875 43.53125 21.660156 42.566406 21.238281 41.710938 C 20.816406 40.855469 20.25 40.175781 19.539063 39.675781 C 18.039063 38.589844 16.28125 38.046875 14.253906 38.046875 Z M 14.253906 37.226563 C 16.453125 37.226563 18.375 37.820313 20.011719 39.003906 C 20.832031 39.585938 21.484375 40.367188 21.96875 41.347656 C 22.449219 42.320313 22.691406 43.40625 22.691406 44.601563 C 22.691406 45.785156 22.566406 46.714844 22.328125 47.386719 L 22.234375 47.640625 L 21.960938 47.65625 C 20.269531 47.742188 17.601563 47.785156 13.964844 47.785156 C 10.328125 47.785156 7.96875 47.761719 6.882813 47.707031 L 6.644531 47.695313 L 6.535156 47.484375 C 6.210938 46.832031 6.046875 45.976563 6.046875 44.917969 C 6.046875 42.429688 6.871094 40.523438 8.511719 39.195313 C 10.125 37.886719 12.039063 37.226563 14.253906 37.226563 Z M 14.34375 49.761719 L 7.554688 49.890625 C 7.484375 50.660156 7.121094 51.042969 6.46875 51.042969 C 5.816406 51.042969 5.277344 50.355469 4.851563 48.976563 C 4.425781 47.597656 4.210938 46.167969 4.210938 44.695313 C 4.210938 43.222656 4.5 41.847656 5.074219 40.574219 C 5.648438 39.296875 6.421875 38.273438 7.398438 37.507813 C 9.382813 35.921875 11.734375 35.125 14.449219 35.125 C 17.09375 35.125 19.390625 35.886719 21.339844 37.402344 C 22.316406 38.152344 23.09375 39.148438 23.679688 40.390625 C 24.261719 41.628906 24.554688 43.101563 24.554688 44.8125 C 24.554688 46.523438 24.335938 48.007813 23.902344 49.265625 C 23.464844 50.519531 22.90625 51.148438 22.226563 51.148438 C 21.585938 51.148438 21.261719 50.710938 21.261719 49.839844 Z M 14.253906 37.636719 C 12.136719 37.636719 10.308594 38.261719 8.769531 39.511719 C 7.226563 40.757813 6.457031 42.5625 6.457031 44.917969 C 6.457031 45.910156 6.605469 46.707031 6.902344 47.300781 C 7.980469 47.351563 10.335938 47.378906 13.964844 47.378906 C 17.59375 47.378906 20.253906 47.335938 21.941406 47.25 C 22.167969 46.621094 22.28125 45.738281 22.28125 44.601563 C 22.28125 43.46875 22.054688 42.441406 21.601563 41.527344 C 21.148438 40.609375 20.539063 39.882813 19.773438 39.339844 C 18.207031 38.207031 16.367188 37.636719 14.253906 37.636719 Z M 18.277344 20.789063 L 18.195313 24.164063 L 17.792969 24.15625 L 18.195313 24.15625 C 18.195313 25.824219 18.214844 27.039063 18.25 27.800781 L 17.84375 27.820313 L 17.972656 27.433594 C 18.539063 27.625 19.4375 27.898438 20.660156 28.253906 C 21.890625 28.613281 22.847656 28.90625 23.535156 29.132813 C 24.398438 29.425781 24.828125 29.953125 24.828125 30.726563 C 24.828125 31.175781 24.683594 31.539063 24.390625 31.820313 C 24.105469 32.097656 23.78125 32.234375 23.417969 32.234375 C 23.140625 32.234375 22.914063 32.222656 22.734375 32.191406 C 22.5625 32.164063 22.308594 32.097656 21.980469 31.996094 C 21.65625 31.894531 21.351563 31.792969 21.066406 31.6875 L 21.210938 31.300781 L 21.078125 31.691406 C 19.582031 31.1875 18.488281 30.820313 17.792969 30.59375 L 17.921875 30.203125 L 18.328125 30.203125 C 18.328125 30.800781 18.191406 31.277344 17.917969 31.644531 C 17.621094 32.039063 17.21875 32.234375 16.71875 32.234375 C 15.628906 32.234375 15.085938 31.453125 15.085938 29.890625 L 15.085938 29.417969 L 15.492188 29.417969 L 15.355469 29.800781 L 7.351563 26.910156 C 6.679688 26.65625 6.296875 26.511719 6.195313 26.480469 C 6.085938 26.445313 5.925781 26.386719 5.722656 26.304688 C 5.496094 26.214844 5.324219 26.132813 5.207031 26.058594 C 5.113281 26 4.996094 25.921875 4.855469 25.839844 C 4.691406 25.734375 4.558594 25.632813 4.460938 25.53125 C 4.359375 25.433594 4.269531 25.320313 4.183594 25.191406 L 4.179688 25.179688 C 4 24.886719 3.910156 24.578125 3.910156 24.25 C 3.910156 23.949219 3.941406 23.703125 4.007813 23.503906 C 4.078125 23.28125 4.207031 23.082031 4.394531 22.894531 C 4.554688 22.734375 4.730469 22.597656 4.910156 22.484375 C 5.089844 22.375 5.351563 22.25 5.707031 22.109375 C 6.039063 21.980469 6.347656 21.859375 6.625 21.757813 L 6.644531 21.75 C 9.195313 20.914063 12.09375 19.867188 15.347656 18.617188 L 15.492188 18.996094 L 15.085938 19.007813 L 15.058594 18.058594 L 15.058594 18.054688 C 15.058594 17.503906 15.214844 17.042969 15.519531 16.675781 C 15.84375 16.292969 16.253906 16.101563 16.746094 16.101563 C 17.769531 16.101563 18.316406 16.808594 18.378906 18.21875 L 17.972656 18.238281 L 17.851563 17.847656 C 18.402344 17.671875 19.105469 17.441406 19.953125 17.144531 C 21.839844 16.449219 22.949219 16.101563 23.285156 16.101563 C 23.675781 16.101563 24.023438 16.234375 24.332031 16.5 C 24.664063 16.78125 24.828125 17.160156 24.828125 17.636719 C 24.828125 18.445313 24.40625 19.027344 23.558594 19.375 L 23.546875 19.378906 L 23.539063 19.382813 C 22.679688 19.683594 20.832031 20.277344 17.992188 21.167969 L 17.871094 20.777344 Z M 17.460938 20.765625 L 17.464844 20.472656 L 17.746094 20.386719 C 20.582031 19.5 22.421875 18.90625 23.269531 18.609375 L 23.402344 18.996094 L 23.25 18.617188 C 23.757813 18.410156 24.015625 18.082031 24.015625 17.636719 C 24.015625 17.410156 23.945313 17.242188 23.804688 17.125 C 23.648438 16.988281 23.472656 16.921875 23.285156 16.921875 C 23.050781 16.921875 22.023438 17.25 20.222656 17.917969 C 19.367188 18.214844 18.65625 18.453125 18.097656 18.628906 L 17.589844 18.789063 L 17.566406 18.257813 C 17.523438 17.367188 17.25 16.921875 16.746094 16.921875 C 16.507813 16.921875 16.304688 17.015625 16.144531 17.207031 C 15.964844 17.417969 15.875 17.699219 15.875 18.054688 L 15.464844 18.054688 L 15.875 18.042969 L 15.910156 19.277344 L 15.640625 19.378906 C 12.375 20.640625 9.460938 21.6875 6.898438 22.53125 L 6.769531 22.140625 L 6.914063 22.519531 C 6.636719 22.625 6.335938 22.742188 6.003906 22.871094 C 5.699219 22.996094 5.472656 23.097656 5.339844 23.179688 C 5.207031 23.261719 5.085938 23.359375 4.96875 23.472656 C 4.878906 23.570313 4.8125 23.664063 4.78125 23.757813 C 4.742188 23.875 4.722656 24.039063 4.722656 24.25 C 4.722656 24.421875 4.773438 24.589844 4.871094 24.75 L 4.527344 24.964844 L 4.867188 24.738281 C 4.917969 24.820313 4.976563 24.894531 5.035156 24.953125 C 5.089844 25.011719 5.175781 25.074219 5.289063 25.144531 C 5.429688 25.230469 5.546875 25.304688 5.644531 25.367188 C 5.71875 25.414063 5.84375 25.472656 6.015625 25.542969 C 6.210938 25.617188 6.359375 25.671875 6.453125 25.703125 C 6.566406 25.738281 6.957031 25.886719 7.625 26.140625 L 15.898438 29.128906 L 15.898438 29.890625 C 15.898438 30.90625 16.171875 31.417969 16.71875 31.417969 C 16.949219 31.417969 17.132813 31.328125 17.269531 31.148438 C 17.429688 30.933594 17.511719 30.617188 17.511719 30.203125 L 17.511719 29.640625 L 18.046875 29.8125 C 18.746094 30.039063 19.839844 30.410156 21.339844 30.914063 L 21.347656 30.917969 L 21.355469 30.917969 C 21.625 31.019531 21.914063 31.121094 22.214844 31.210938 C 22.515625 31.300781 22.734375 31.359375 22.871094 31.382813 C 23.003906 31.40625 23.1875 31.417969 23.417969 31.417969 C 23.558594 31.417969 23.695313 31.355469 23.828125 31.230469 C 23.949219 31.109375 24.015625 30.941406 24.015625 30.726563 C 24.015625 30.347656 23.769531 30.074219 23.273438 29.910156 C 22.601563 29.6875 21.652344 29.394531 20.429688 29.039063 C 19.199219 28.679688 18.292969 28.402344 17.714844 28.207031 L 17.445313 28.121094 L 17.433594 27.839844 C 17.398438 27.066406 17.382813 25.835938 17.382813 24.15625 L 17.382813 24.148438 Z M 15.191406 27.152344 C 15.226563 26.039063 15.242188 24.964844 15.242188 23.933594 C 15.242188 22.902344 15.226563 22.074219 15.191406 21.453125 L 15.597656 21.433594 L 15.730469 21.820313 C 13.101563 22.734375 11.132813 23.425781 9.820313 23.894531 C 9.164063 24.125 8.671875 24.304688 8.34375 24.421875 C 8.183594 24.484375 8.0625 24.527344 7.984375 24.558594 C 7.949219 24.574219 7.921875 24.582031 7.90625 24.589844 C 8.046875 24.527344 8.121094 24.40625 8.121094 24.234375 C 8.121094 24.105469 8.074219 24.003906 7.980469 23.933594 L 7.996094 23.941406 C 8.046875 23.972656 8.128906 24.007813 8.242188 24.058594 C 8.480469 24.164063 8.84375 24.304688 9.332031 24.492188 C 10.3125 24.867188 11.785156 25.402344 13.75 26.101563 L 15.730469 26.777344 L 15.597656 27.167969 Z M 15.988281 27.730469 L 13.476563 26.871094 C 9.359375 25.410156 7.300781 24.53125 7.300781 24.234375 C 7.300781 24.003906 10.023438 22.941406 15.460938 21.046875 L 15.972656 20.867188 L 16.003906 21.410156 C 16.039063 22.046875 16.058594 22.886719 16.058594 23.933594 C 16.058594 24.976563 16.039063 26.058594 16.003906 27.179688 Z M 17.871094 20.777344 L 17.792969 24.15625 C 17.792969 25.828125 17.808594 27.054688 17.84375 27.820313 C 18.417969 28.011719 19.316406 28.285156 20.546875 28.644531 C 21.773438 29.003906 22.722656 29.296875 23.402344 29.523438 C 24.085938 29.75 24.421875 30.152344 24.421875 30.726563 C 24.421875 31.058594 24.320313 31.324219 24.109375 31.527344 C 23.902344 31.726563 23.667969 31.824219 23.417969 31.824219 C 23.164063 31.824219 22.960938 31.8125 22.800781 31.789063 C 22.644531 31.761719 22.410156 31.699219 22.097656 31.605469 C 21.785156 31.507813 21.488281 31.40625 21.210938 31.300781 C 19.714844 30.796875 18.617188 30.429688 17.921875 30.203125 C 17.921875 30.710938 17.8125 31.109375 17.59375 31.394531 C 17.375 31.683594 17.082031 31.824219 16.71875 31.824219 C 15.898438 31.824219 15.492188 31.179688 15.492188 29.890625 L 15.492188 29.417969 C 10.824219 27.742188 8.160156 26.777344 7.488281 26.523438 C 6.816406 26.273438 6.429688 26.125 6.328125 26.089844 C 6.222656 26.058594 6.070313 26 5.867188 25.921875 C 5.667969 25.84375 5.519531 25.773438 5.425781 25.714844 C 5.328125 25.652344 5.214844 25.578125 5.074219 25.488281 C 4.933594 25.402344 4.824219 25.320313 4.746094 25.242188 C 4.667969 25.164063 4.597656 25.070313 4.527344 24.964844 C 4.382813 24.738281 4.3125 24.5 4.3125 24.25 C 4.3125 23.996094 4.339844 23.789063 4.394531 23.632813 C 4.449219 23.472656 4.542969 23.328125 4.683594 23.1875 C 4.820313 23.046875 4.96875 22.929688 5.125 22.832031 C 5.28125 22.734375 5.527344 22.621094 5.855469 22.492188 C 6.1875 22.359375 6.492188 22.246094 6.769531 22.140625 C 9.328125 21.300781 12.238281 20.253906 15.492188 18.996094 L 15.464844 18.054688 C 15.464844 17.601563 15.585938 17.230469 15.832031 16.941406 C 16.074219 16.652344 16.378906 16.511719 16.746094 16.511719 C 17.511719 16.511719 17.921875 17.085938 17.972656 18.238281 C 18.53125 18.0625 19.234375 17.828125 20.089844 17.53125 C 21.933594 16.851563 23 16.511719 23.285156 16.511719 C 23.574219 16.511719 23.835938 16.609375 24.070313 16.808594 C 24.304688 17.011719 24.421875 17.285156 24.421875 17.636719 C 24.421875 18.265625 24.085938 18.71875 23.402344 18.996094 C 22.550781 19.292969 20.707031 19.886719 17.871094 20.777344 Z M 15.597656 27.167969 C 15.628906 26.046875 15.648438 24.972656 15.648438 23.933594 C 15.648438 22.894531 15.628906 22.0625 15.597656 21.433594 C 10.339844 23.265625 7.710938 24.199219 7.710938 24.234375 C 7.710938 24.339844 9.675781 25.089844 13.613281 26.484375 Z M 18.835938 0.390625 C 20.574219 0.390625 22.035156 1.050781 23.210938 2.371094 C 24.378906 3.679688 24.960938 5.363281 24.960938 7.421875 C 24.960938 9.015625 24.578125 10.496094 23.8125 11.867188 C 23.003906 13.316406 22.171875 14.039063 21.316406 14.039063 C 20.886719 14.039063 20.53125 13.894531 20.246094 13.605469 C 19.953125 13.316406 19.808594 12.953125 19.808594 12.519531 C 19.808594 12.113281 19.941406 11.710938 20.203125 11.3125 C 20.433594 10.960938 20.679688 10.640625 20.945313 10.34375 C 21.167969 10.101563 21.375 9.722656 21.574219 9.203125 C 21.773438 8.683594 21.875 8.089844 21.875 7.421875 C 21.875 6.332031 21.597656 5.433594 21.046875 4.730469 C 20.519531 4.058594 19.78125 3.726563 18.835938 3.726563 C 18.234375 3.726563 17.65625 4.011719 17.089844 4.59375 C 16.472656 5.230469 15.910156 6.003906 15.40625 6.917969 C 14.882813 7.863281 14.347656 8.808594 13.792969 9.753906 C 13.222656 10.734375 12.523438 11.574219 11.691406 12.269531 C 10.824219 12.996094 9.878906 13.359375 8.859375 13.359375 C 7.460938 13.359375 6.261719 12.75 5.253906 11.535156 C 4.269531 10.34375 3.777344 8.9375 3.777344 7.320313 C 3.777344 5.738281 4.046875 4.386719 4.585938 3.269531 C 5.175781 2.046875 5.886719 1.4375 6.71875 1.4375 C 7.167969 1.4375 7.53125 1.585938 7.804688 1.886719 C 8.0625 2.175781 8.199219 2.542969 8.199219 3 C 8.199219 3.433594 8.0625 3.851563 7.785156 4.25 C 7.570313 4.566406 7.355469 4.953125 7.140625 5.421875 C 6.9375 5.859375 6.839844 6.457031 6.839844 7.214844 C 6.839844 7.953125 7.039063 8.617188 7.445313 9.207031 C 7.816406 9.753906 8.265625 10.027344 8.78125 10.027344 C 9.316406 10.027344 9.828125 9.742188 10.3125 9.175781 C 10.859375 8.53125 11.386719 7.753906 11.898438 6.832031 C 12.421875 5.886719 12.972656 4.9375 13.550781 3.992188 C 14.152344 3.007813 14.898438 2.167969 15.789063 1.472656 C 16.71875 0.753906 17.730469 0.390625 18.835938 0.390625 Z M 18.835938 1.210938 C 17.917969 1.210938 17.070313 1.511719 16.292969 2.121094 C 15.476563 2.75 14.796875 3.519531 14.246094 4.417969 C 13.675781 5.355469 13.128906 6.292969 12.613281 7.230469 C 12.074219 8.195313 11.515625 9.023438 10.933594 9.707031 C 10.285156 10.464844 9.566406 10.847656 8.78125 10.847656 C 7.976563 10.847656 7.308594 10.453125 6.773438 9.671875 C 6.273438 8.9375 6.023438 8.121094 6.023438 7.214844 C 6.023438 6.335938 6.148438 5.625 6.398438 5.078125 C 6.636719 4.570313 6.871094 4.140625 7.113281 3.789063 C 7.292969 3.527344 7.378906 3.265625 7.378906 3 C 7.378906 2.757813 7.320313 2.570313 7.199219 2.441406 C 7.089844 2.316406 6.929688 2.257813 6.71875 2.257813 C 6.226563 2.257813 5.761719 2.714844 5.324219 3.625 C 4.835938 4.632813 4.59375 5.863281 4.59375 7.320313 C 4.59375 8.742188 5.023438 9.972656 5.882813 11.011719 C 6.722656 12.03125 7.714844 12.542969 8.859375 12.542969 C 9.683594 12.542969 10.453125 12.238281 11.171875 11.640625 C 11.925781 11.007813 12.566406 10.242188 13.089844 9.339844 C 13.636719 8.402344 14.171875 7.457031 14.691406 6.519531 C 15.230469 5.546875 15.835938 4.714844 16.507813 4.023438 C 17.230469 3.277344 18.003906 2.90625 18.835938 2.90625 C 20.042969 2.90625 20.996094 3.347656 21.6875 4.226563 C 22.355469 5.078125 22.691406 6.144531 22.691406 7.421875 C 22.691406 8.191406 22.570313 8.878906 22.335938 9.496094 C 22.101563 10.109375 21.839844 10.574219 21.550781 10.894531 C 21.316406 11.15625 21.089844 11.445313 20.886719 11.757813 C 20.710938 12.023438 20.628906 12.277344 20.628906 12.519531 C 20.628906 12.726563 20.691406 12.894531 20.820313 13.027344 C 20.949219 13.15625 21.113281 13.222656 21.316406 13.222656 C 21.851563 13.222656 22.445313 12.636719 23.101563 11.464844 C 23.796875 10.222656 24.144531 8.871094 24.144531 7.421875 C 24.144531 5.574219 23.632813 4.070313 22.601563 2.917969 C 21.585938 1.78125 20.332031 1.210938 18.835938 1.210938 Z M 18.835938 0.800781 C 20.453125 0.800781 21.8125 1.417969 22.90625 2.644531 C 24.007813 3.875 24.554688 5.46875 24.554688 7.421875 C 24.554688 8.945313 24.1875 10.359375 23.457031 11.667969 C 22.722656 12.972656 22.011719 13.628906 21.316406 13.628906 C 21 13.628906 20.742188 13.523438 20.53125 13.316406 C 20.324219 13.105469 20.21875 12.839844 20.21875 12.519531 C 20.21875 12.195313 20.324219 11.867188 20.546875 11.535156 C 20.765625 11.203125 21 10.898438 21.25 10.621094 C 21.503906 10.339844 21.738281 9.914063 21.957031 9.347656 C 22.171875 8.78125 22.28125 8.140625 22.28125 7.421875 C 22.28125 6.238281 21.976563 5.257813 21.367188 4.480469 C 20.757813 3.703125 19.914063 3.316406 18.835938 3.316406 C 18.121094 3.316406 17.441406 3.644531 16.796875 4.308594 C 16.152344 4.972656 15.570313 5.773438 15.046875 6.71875 C 14.527344 7.660156 13.988281 8.605469 13.441406 9.546875 C 12.894531 10.488281 12.222656 11.289063 11.429688 11.953125 C 10.640625 12.617188 9.78125 12.949219 8.859375 12.949219 C 7.589844 12.949219 6.492188 12.390625 5.570313 11.273438 C 4.648438 10.15625 4.183594 8.839844 4.183594 7.320313 C 4.183594 5.800781 4.441406 4.511719 4.957031 3.445313 C 5.46875 2.382813 6.058594 1.847656 6.71875 1.847656 C 7.050781 1.847656 7.308594 1.953125 7.5 2.164063 C 7.691406 2.371094 7.789063 2.652344 7.789063 3 C 7.789063 3.351563 7.675781 3.691406 7.449219 4.019531 C 7.222656 4.351563 6.996094 4.761719 6.769531 5.25 C 6.542969 5.738281 6.429688 6.394531 6.429688 7.214844 C 6.429688 8.039063 6.65625 8.777344 7.109375 9.441406 C 7.5625 10.105469 8.121094 10.4375 8.78125 10.4375 C 9.441406 10.4375 10.054688 10.105469 10.621094 9.441406 C 11.1875 8.777344 11.734375 7.976563 12.253906 7.03125 C 12.777344 6.089844 13.324219 5.148438 13.898438 4.203125 C 14.472656 3.261719 15.1875 2.460938 16.039063 1.796875 C 16.890625 1.132813 17.824219 0.800781 18.835938 0.800781 Z M 18.835938 0.800781 "
     id="path2" />
</svg>
